<?xml version="1.0" encoding="utf-8"?>
<!-- Generator: Adobe Illustrator 24.3.0, SVG Export Plug-In . SVG Version: 6.00 Build 0)  -->
<svg version="1.1" id="Layer_1" xmlns="http://www.w3.org/2000/svg" xmlns:xlink="http://www.w3.org/1999/xlink" x="0px" y="0px"
	 viewBox="0 0 726 1320" style="enable-background:new 0 0 726 1320;" xml:space="preserve">
<style type="text/css">
	.st0{fill:#CCCCCC;stroke:#0E4C9E;stroke-width:0.5;}
	.st1{display:none;fill:#CCCCCC;stroke:#0E4C9E;stroke-width:0.5;}
	.st2{fill:#CCCCCC;stroke:#0E4E9C;stroke-width:0.5;}
</style>
<g>
	<path id="bck_2" class="st0" d="M418.3,214.6c-24.7-4.1-43.9-6.1-38.5-44.1c0.1-0.5,2.8-7.6,5-12.9c-16.7,13.9-71.9,14.2-86.8-0.6
		c2.5,7.6,4.8,12.7,5.5,14.6c1,2.8,1.1,23.8-0.8,27.3c-4.8,8.8-20.5,14.1-36.1,17C293.8,220.1,398.1,219.3,418.3,214.6z"/>
	<path id="bck_9" class="st0" d="M510.4,444.1c8.4-3.3,16.8-6.8,19.5-19.4c-3-9.6-5.8-22.8-10.4-36.5c-2.6-7.8-10-27.1-16.3-50.1
		c-1-3.6-1.7-6.9-2.3-10.2c-1.5-4.6-2.3-27.7-6.3-49c-5-36.3-14.9-45.5-18.4-49.1c-1.9-1.9-7.5-5.8-19.2-9.6
		c-12.9-4.1-27.7-1.7-29.6-3.5c-4.2-3.7,29.3,73.1,25.5,69.1c-2.3,9.3-5.8,17.8-6.8,24.4c-1.4,8.7-1.5,16.8-1.2,24.6
		c3.6,7.4,20.9,53.1,21.9,55.5c1.1,2.7,13.7,35.9,15.8,40c0.6,1.3,1.4,3.7,2.2,6.6C491.3,445.7,500,448.2,510.4,444.1z"/>
	<path id="bck_3_2_" class="st0" d="M340.2,450.9c1.2,10.2,14.3,1.4,22.8,3.4c26.3,6.3,52.8-4.7,65.3-8.2c1.3-9.1,2.7-17.1,3.6-21.7
		c2.3-12,10-47.2,11.1-74.3c0.2-5.5,0.3-11.6,0.7-14.2c0.3-1.8,0.5-1.8,1.2-1.1c-0.6-17.8,3-25,4-31c0.7-4.2,3.1-10.1,4.8-17.7
		c1.1-4.7,1.9-10.1,1.9-16.2c0-11.8-7.4-38.3-28.2-53.2c-2.9-0.4-5.8-0.9-8.8-1.4c-21.8,2.2-44.9,2.8-74.9,2.6
		C340.8,218,339.2,442.6,340.2,450.9z"/>
	<path id="bck_9_1_" class="st0" d="M198.5,438c0.8-2.9,1.7-5.3,2.3-6.6c2.2-4.1,15.2-37.1,16.3-39.8c1-2.4,18.9-47.9,22.6-55.2
		c0.4-7.8,0.4-15.9-0.9-24.6c-0.9-6.6-4.3-15.2-6.5-24.5c-3.9,4,31-73.6,26.8-70c-1.9,1.8-17.1,0.4-30,4.3
		c-11.7,3.6-17.3,7.5-19.3,9.3c-3.5,3.6-13.6,12.7-19,48.9c-4.3,21.2-5.4,44.3-6.9,48.9c-0.6,3.3-1.4,6.6-2.4,10.2
		c-6.6,22.9-14.2,42.1-16.9,49.9c-4.8,13.6-7.7,26.8-10.9,36.4c2.5,12.6,10.9,16.2,19.2,19.7C183.1,449.1,191.8,446.7,198.5,438z"/>
	<path id="bck_3_1_" class="st0" d="M341.8,218.6c-30,0-54,0-75.8-2.4c-3,0.5-5.9,1-8.8,1.4c-20.9,14.7-28.5,41.2-28.6,53
		c-0.1,6.1,0.7,11.5,1.7,16.2c1.6,7.6,4,13.5,4.6,17.7c0.9,6,5.7,14.3,4.9,32.1c0.7-0.8-0.2-1.9,0,0c0.3,2.6,0.4,8.6,0.6,14.2
		c0.8,27.2,8.2,62.4,10.5,74.4c0.9,4.6,2.1,12.6,3.4,21.7c12.5,3.6,37,6.5,64.1,7.1c8.4,0.2,22.8,8.6,24-1.6
		C343.4,444,344.5,218.6,341.8,218.6z"/>
	<path id="bck_4_1_" class="st0" d="M342.4,452.3c-8.6,0-15.3,1.3-23.6,1.1c-27.1-0.6-51.5-3.5-64.1-7.1c2.1,14.6,4.1,32,4.6,42.8
		c0.8,17.5-3,26-8.8,39.2c-2.3,5.4-6.5,15.5-11.1,27.5c12.6-6.7,39.6-11.6,58.9-11.6c26.5,0,45.8,33.2,44.6,1.6
		C341.2,498,343.5,517.3,342.4,452.3z"/>
	<path class="st0" d="M445.5,560.2c-12.5-6.8-40.3-16.7-59.4-13.7c-19,3-46.2,30.7-44.7-0.9c2.1-47.8-0.3-28.6,1.2-93.6
		c8.6,0.1,15.3,1.4,23.6,1.3c27.1-0.4,49.7-4.4,62.2-7.9c-2.1,14.6-2.5,33.2-3,44c-0.9,17.5,2.8,26,8.5,39.3
		C436.2,534.1,441,548.2,445.5,560.2z"/>
	<path id="bck_5_1_" class="st0" d="M341.5,554c-18.4,0.1-17.7-9.8-44.2-9.7c-19.3,0.1-46.4,5.2-58.9,12
		c-6.7,17.7-14.1,39.3-17.9,55.5c-5.6,24-6.1,32.9-6.2,50.1c26.8,26.9,61.7,36.3,106,28.4c10-2.4,8.3-1.7,13.4-3.8
		c4.4-1.8,7.2-2.9,9-3.5C343,683.4,341.4,554.1,341.5,554z"/>
	<path id="bck_5_2_" class="st0" d="M340.5,683c1.9,0.6,4.7,1.8,9,3.5c5.2,2.1,3.4,1.4,13.4,3.8c44.3,7.9,79.2-1.6,106-28.4
		c-0.1-17.2-0.6-26.1-6.2-50.1c-3.8-16.2-11.2-37.8-17.9-55.5c-12.5-6.8-39.6-11.9-58.9-12c-26.5-0.1-25.8,9.8-44.2,9.7
		C341.9,554.1,340.3,683.4,340.5,683z"/>
	<path id="bck_7" class="st1" d="M454.3,264.4c1.3,7.3,0.3,14.7-1.4,21.6c15.4,16.3,36.1,29.7,48,42.1c-2.9-15.5-2.7-29.3-12.4-66.5
		c-9.7-37.1-34.9-40.1-61.2-45.3c-0.3-0.1-0.6-0.1-1-0.2C445.7,231.3,453.1,257.4,454.3,264.4z"/>
	<path id="bck_10" class="st0" d="M173.7,444.1c-8.7-3.5-17.6-7.2-19.8-21.2c-3.9,12.7-8.9,23.3-12.7,31.5c-2.1,4.7-5.7,12.9-9,21.8
		c4.4-4.2,13-7,32.2-1.2c6.3,1.9,18.9,7.9,21.5,17.4c2.3-8.3,4.7-21.4,6.1-25.9c1.7-5.2,4.7-20.3,6-27c0.1-0.3,0.1-0.7,0.2-1
		C191.8,446,183.5,448,173.7,444.1z"/>
	<path id="bck_11" class="st0" d="M519.7,475.1c17.7-5.4,26.4-3.4,31.1,0.2c-3.5-10.3-7.1-17.9-8-19.6c-1.6-2.7-5.5-13.5-10-23.2
		c-1-2.2-1.9-4.8-2.8-7.7c-2.7,12.5-11.1,16.1-19.5,19.4c-10.4,4.1-19.2,1.5-25.7-7.1c1.8,6.4,3.8,15,4.3,16.9
		c1.4,5,3.1,13.2,4.2,18.2c0.7,3.4,1.6,9.4,4.9,20.6C500.5,483.2,513.4,477,519.7,475.1z"/>
	<path id="bck_12" class="st0" d="M164.4,475.1c-19.2-5.9-27.8-3-32.2,1.2c-2.8,7.6-5.5,15.8-6.9,22.5c-3,14.7-3.8,31.2-6.2,46.5
		c-1.3,8.7-11.8,38.8-15.2,49.2c-3.7,4.5,9.1,3,16.9,6.5c4.6,2.1,9.4,4.5,15.2,5.2c3.6-12.4,20.2-42.2,26.4-55.3
		c7.8-16.5,20-47.8,22.5-55.5c0.3-0.9,0.6-1.8,0.9-2.9C183.2,483,170.6,477,164.4,475.1z"/>
	<path id="bck_13" class="st0" d="M576.3,591.9c-6.9-23.1-16.5-79.3-19.5-94.6c-1.5-7.8-3.8-15.4-6-21.9c-4.7-3.6-13.4-5.6-31.1-0.2
		c-6.3,1.9-19.2,8.1-21.6,17.8c1.7,5.6,3.9,12.6,7.1,21.2c9.2,24.7,23,50.2,35.9,77.1c0.1,0.2,4.9,14.1,5.1,14.8
		c5.9-0.6,13.8-6.1,18.6-8.3C570.9,594.9,574.6,594.7,576.3,591.9z"/>
	<path id="bck_16" class="st0" d="M83.8,602.2c-5.9,1.7-7.1,4.2-11.8,6.4s-9.8,6.2-10.4,7.2s-2.8,2.9-5.2,5.7s-0.8,5.6,1.8,6.4
		s7.8-0.5,11.2-3.3s6.8-4.7,9.2-5.8s3.4,0.4,3.7,2.1s-2.6,9.6-4,14s-1.4,6.8-1.9,10.5s-2.6,12.9-3.2,17.7s-1.4,14.4-1.5,19.2
		s0.8,8.8,3.3,9.1s4.6-2,5.3-5.7s2.5-10.1,2.9-13.8s2.6-12.7,3.1-14.3s2.1-1.1,1.8,0.4s-1,5.5-1.5,8.1s-2.4,13.5-3.1,17.2
		s-1.5,14-1.3,18.2s2.8,6,5.2,4.8s4.6-6.5,5.3-10.8s2.2-10,3-15.2s2.9-15.1,4-18.6s2.4-0.9,2.3,0.9s-0.8,4.3-1,8.9s-1,15.6-1.5,19.8
		s-1.4,11,1.6,12.2s5.2-2.5,6.4-6.2s2.4-12.1,3.4-16.8s2.1-15.3,2.8-18.8s2.1-6.2,2.9-5.7s0.8,3.9,0,7.6s-1.7,9.8-2.7,13.5
		s-3.2,10.1,0,11.4s5.6-3.9,7-7.6s2.9-6.4,4.1-11s1.7-3.4,3.4-12.1c1.7-8.7,1.4-11.3,3.1-21.1s2.7-17.2,3-21.2
		c0.1-1.5,1.4-7.9,1.5-9.3c-9-6-22.1-11.3-32.9-12.4C98.7,595.9,87.5,601.1,83.8,602.2z"/>
	<path id="bck_17" class="st0" d="M623,619.2c-2.2-1.8-3.2-5.8-5.2-6.6c-4.3-1.9-5.8-3.5-10.2-5.7c-2.8-1.4-7.7-4.1-16-6.8
		c-2.3-0.8-12-7-14.4-8.2c-11.7,1.6-23,8.2-31,14.2c0.3,2.2,1.4,11.2,1.4,12.9c0.1,4.8,2.8,18,3.2,22.4s0.5,11.8,3,17.6
		s1.5,11.1,3.3,14.1s2.2,6.2,5.2,11.3s5.2,5.6,6.4,2.2s0-8.2-0.8-9.9s-1.9-7.6-2.3-10.4s-1.6-7.6-0.8-9.8s3.2,2.4,3.3,4.5
		s1.4,12.3,2.1,16.3s2.2,14.1,3.4,19.1s4.5,8.6,6.8,7.1s2.8-6.8,2.6-9.1s-1.4-12.5-1.6-15.6s-1.7-15.8-1.9-17.5s2.2-1.6,2.8,0.6
		s2.1,9.6,2.8,13s2.9,15.4,3.7,21.7s4.9,10.2,7.5,10.4s3.1-6.7,3.2-9.2s-1-12.5-1.5-15.3s-4.2-24.8-3.2-24.8s3.6,14.8,4.8,21.2
		s2.8,13,6.7,13.1s3.2-4.8,3.4-12.8s-0.8-13.9-2.3-25.2s-3.3-17.9-4.4-22s-3.2-10.8-2.1-12.6s7.5,1.7,11.3,5.2s10.8,4.5,13.2,2.5
		S625.2,621.1,623,619.2z"/>
	<path id="bck_18" class="st0" d="M214.3,661.9c0,2.3,0,17.3,0,19.3c0,17.5,1.8,35.2,3.8,48s13.2,79.2,16,96.2
		c2.2,13.4,7.4,52,11.4,76.6c12.8,17.4,28.6,21.1,42.4,21.9c13.6,0.9,27.4-1.6,35.6-9.2c0.6-15.5,0.9-32.5,0.6-40.3
		c-0.5-14.8-2.2-56-2.1-67.9s2.6-35,4.2-43.8s5.9-31.3,8.1-41.2c2.2-9.7,6.1-37.3,6.2-37.9C294.4,703.4,240.3,689,214.3,661.9z"/>
	<path id="bck_20" class="st0" d="M287.8,924c-13.8-0.9-29.6-4.5-42.4-21.9c1.1,6.6,2,12.1,2.8,15.9c3.7,18,2.7,23.8,4.2,33
		s0.8,17.5-1.7,33.5c-0.2,1.2-0.4,2.6-0.5,4.2c6.1-11.6,19.8-14,31.8-12.7c12.4,1.3,28.6,6,35.1,11.2c-0.2-4-0.3-7.9-0.4-11.4
		c-0.2-11.5,3.5-22.5,4.8-30.3c0.6-3.7,1.3-16.6,1.9-30.7C315.2,922.4,301.5,924.9,287.8,924z"/>
	<path id="bck_18_1_" class="st0" d="M341.3,683.3c0.1,0.6,4.1,28.3,6.3,38c2.3,9.8,6.6,32.3,8.3,41.1s4.3,31.9,4.4,43.8
		s-1.3,53.1-1.7,67.9c-0.3,7.8,0.5,26.2,1.2,41.7c8.2,7.6,22,10.6,35.6,9.6c13.8-0.9,29.4-4.5,42.1-22c3.9-24.6,8.7-65.4,10.8-78.9
		c2.7-17,13.5-83.5,15.5-96.3s4.5-31.8,4.4-49.3c0-2,0.8-15.7,0.8-18C443.2,688.3,387.5,702.9,341.3,683.3z"/>
	<path id="bck_21" class="st0" d="M396.3,924c-14.2,0.9-28.4-1.8-36.5-10.1c0.3,9.5,0.7,18.3,1,22.9c0.8,11.5,5.8,24.2,5.8,40.7
		c0,3.6-0.1,7-0.3,10.2c6-5.4,22.9-10.4,35.7-11.7c11.4-1.2,24.3,0.9,30.8,11c-0.7-4.9-1.5-9.5-2.1-13.5
		c-1.5-10.3-0.3-21.2,1.2-34.3c0.9-7.9,3.5-22.7,5.6-35.7C425,919.7,409.7,923.2,396.3,924z"/>
	<path id="bck_22" class="st0" d="M250.2,988.7c-1.6,18.6,0.5,58.3,0.5,68.5c0,11,3.2,52.8,8,69.7c2.1,7.2,4.5,18.6,6.9,30.3
		c5.1,7,16.4,9.5,26,9.9c9.1,0.4,18.7-4,23.6-12.1c1-9.1,1.9-17.9,2.4-23.8c1.3-15.8,6.3-57.7,7-66.8s-0.2-34.5-3.5-48
		c-2.3-9.4-3.4-19.8-3.9-29.1c-6.5-5.2-22.7-9.9-35.1-11.2C270,974.7,256.3,977.1,250.2,988.7z"/>
	<path id="bck_23" class="st0" d="M402.1,976c-12.8,1.4-29.7,6.3-35.7,11.7c-0.6,11.6-2.3,21.9-5.4,37.1c-4,19.5-2.2,39.5-0.2,53.8
		s3,38.5,6.2,63.5c0.5,4.1,1,8.1,1.4,11.9c4.7,8.7,14.7,13.4,24.1,13c8.9-0.4,19.3-2.6,24.8-8.5c3.6-15.6,7.6-32.3,9.8-44.5
		c4-22.7,5.5-50.7,5.5-59.2s2.2-28.3,2.3-42.3c0.1-8.7-0.9-17.6-2.1-25.5C426.4,976.9,413.5,974.8,402.1,976z"/>
	<path id="bck_24" class="st0" d="M291.5,1167c-9.6-0.4-20.9-2.9-26-9.9c3.1,15.7,6,32,7.5,39.6c2.5,13.4,2.7,35.9,2.1,40
		c-0.1,1-0.4,1.7-0.7,2.1c3.3,10.5,2.5,18,1.7,29.6c-0.2,3.5-0.1,13.3,0.4,20.2c0.5,0.6,1,1.1,1.6,1.6c4.9-14.6,28.5-15,35.1-7.9
		c1.6-5.9,1-11.1,2.1-18.4c1.1-8-0.1-13.1-0.5-16.6s1.9-5.1,3.4-12.1s-1.1-12.9-3-19.6s-2.5-13.6-3-23c-0.3-5.9,1.3-22.3,2.9-37.7
		C310.2,1163,300.6,1167.4,291.5,1167z"/>
	<path id="bck_25" class="st0" d="M368.4,1154c2.2,19.2,3.3,34.3,2.6,47.6c-0.4,7.8-3.2,15-5.4,22.2s-0.2,12.7,1.2,16.7
		s1.6,7,0.6,11.5s1.2,14.1,1.4,19.1c0.1,3,0,7.6,1.3,12.3c5-8.1,30-8.4,35.7,6.1c0.7-0.8,1.4-1.6,1.9-2.4c0.4-6.8,0.6-15.5,0.3-18.8
		c-0.8-11.4-1.6-18.8,1.5-29.1c-0.1-0.1-0.2-0.2-0.4-0.4c-1.5-1.7-1-7.3-1.3-10.7s0.5-18.8,2.7-36c1-7.9,3.8-20.4,6.9-33.8
		c-5.5,5.9-15.9,8.1-24.8,8.5C383.1,1167.4,373.2,1162.7,368.4,1154z"/>
	<path id="bck_26" class="st0" d="M278.1,1290.3c4,3.7,9.4,6.4,16,6.8c10.6,0.8,16.1-6.1,18.5-12.9c0.2-0.6,0.4-1.2,0.6-1.8
		C306.6,1275.3,283,1275.7,278.1,1290.3z"/>
	<path id="bck_27" class="st0" d="M370.1,1283.5c0.9,3.1,2.3,6.2,4.8,8.9c6.2,6.9,20.1,3.8,25.8,1.1c2-0.9,3.6-2.3,5.1-3.9
		C400.1,1275,375.1,1275.4,370.1,1283.5z"/>
	<path class="st0" d="M374.9,545.1c-12.6,6.8-43.1,16.5-61.9-0.8c-1.6,0-2.1,3.6-0.5-28c2.3-47.8,10.5-232.7,12.3-297.7
		c8.6,0.1,10.5-0.6,18.8-0.7c27.1-0.3,11.9,0,19.3,0C360.8,232.5,370.5,533.1,374.9,545.1z"/>
	<path class="st0" d="M375.5,545.1c-12.6,6.8-43.1,16.5-61.9-0.8c-1.6,0-2.6,3.6-1-28c1.9-47.4,0,2.9,2.9-63
		c8.6,0.1,17.2,0.3,25.5,0.3c27.1-0.3,20.9-0.4,28.3-0.3C371.2,470.4,371.6,534.5,375.5,545.1z"/>
</g>
<path id="bck_1" class="st1" d="M385.4,157.4c0.8-1.9,1.4-3.5,1.7-4.6c8.9-30.1,10.6-68,7.5-84.8c-7-37.6-26-49.4-55.1-49.4
	c-24.5,0-45.6,15.8-51.1,50.8c-0.6,3.9-0.7,18.2-0.4,24.7s5.2,38.3,6.5,51.2c0.4,3.9,1.3,7.5,2.4,10.8
	C311.7,171.1,368.7,171.3,385.4,157.4z"/>
<path id="bck_1_1_" class="st2" d="M384,159.9c1.6-5.6,6.5-16.3,9.9-30.4c0.4-2.8,4.5-1.7,6.4-4.4c0.9-1.3,7-14.1,7.7-17
	c0.9-3.3,2.8-15.5,1-16.6c-5-7.9-11.2,5.8-10.9,3.1c0.9-8,0-13.1-1.4-22.2c-10.2-36.3-27.9-52.7-58.9-52.7
	c-29.3,0-61.1,24.2-52,74.6c0.4,0.9-5.7-5.9-8.1-4.8c-3.4,1.5-3.4,4.6-3.3,7.3c0.2,3.1,1.2,10.5,2.9,14c1.8,3.5,3.7,13.1,5.6,16
	c2.4,3.6,7,3.9,7.1,4.8c0.2,2.4,5,9.2,8.1,26.8C308.1,179.1,374.2,180.2,384,159.9z"/>
</svg>
