<?xml version="1.0" encoding="utf-8"?>
<!-- Generator: Adobe Illustrator 24.3.0, SVG Export Plug-In . SVG Version: 6.00 Build 0)  -->
<svg version="1.1" id="Layer_1" xmlns="http://www.w3.org/2000/svg" xmlns:xlink="http://www.w3.org/1999/xlink" x="0px" y="0px"
	 viewBox="0 0 726 1320" style="enable-background:new 0 0 726 1320;" xml:space="preserve">
<style type="text/css">
	.st0{fill:#CCCCCC;stroke:#0E4C9E;stroke-width:0.5;}
	.st1{display:none;fill:#CCCCCC;stroke:#0E4C9E;stroke-width:0.5;}
</style>
<g>
	<path id="frt_1" class="st0" d="M342.2,18.8c-25.9,0-43.8,13.7-50.4,35.5c-3.2,10.6-3.6,24.1-3.6,40.5c0,2.2,0.1,4.4,0.2,6.5
		c0.5,11.2,2.3,22.2,4.6,31.6c3.2,13.1,7.4,23.3,10.5,26.9c3.5,5.3,9.4,9.8,13.8,13.2c7.5,5.9,14.7,9,26,9
		c11.7,0,20.1-3.8,27.3-10.2c3.9-3.5,8.8-8.4,10.5-12.2c3.4-6.6,6.2-17.3,8.3-28c2.5-12.6,4.1-25.3,4.7-31.5
		c0.1-1.5,0.2-2.7,0.2-3.3C394.2,81.7,402.2,18.8,342.2,18.8z"/>
	<path id="frt_4" class="st0" d="M281.2,97.1c-2.9,0.6-4.1,8.2-3.1,13.6s3.9,14.2,6.5,18.8c2.3,4.1,4.8,9.6,8.3,3.4
		c-2.3-9.4-4.1-20.4-4.6-31.6C286,99.1,283.1,96.7,281.2,97.1z"/>
	<path id="frt_5" class="st0" d="M396,132.6c1.5-2.4,4.4-8.9,5.8-12.6s2.9-14.2,2.4-18.9s-4.8-4.9-6.5-2.2c-0.8,1.2-2.2,1.5-3.6,1.3
		c-0.5,6.2-2.1,18.9-4.7,31.5C391.8,137,394.8,134.5,396,132.6z"/>
	<path id="frt_9_4_" class="st0" d="M341.2,321.9c9.2-1.1,19.4-4.8,24.5-8.4c5.6-0.4,23.1,7.5,32.9,5.5c2.6-0.5,6.9,1.8,8.1,1.6
		c1.7-0.5,21.6-1.6,31.7-2.2c4.6-2.2,22.8-19.8,2.4-60.2c-6-11.7,4.7-39.2-14.9-39.7c-6-0.1-70.7-0.2-77.4-0.8
		C343.9,214.5,318.7,321.9,341.2,321.9z"/>
	<path id="frt_9_3_" class="st0" d="M234.9,234.8c1.2,8,5.1,16.8,8.9,21.2c0.5,4.9-7.4,20.2-5.3,28.7c0.5,2.3-1.8,6-1.5,7
		c0.5,1.5,1.9,18.8,2.6,27.5c2.3,4,20.6,19.7,62,1.6c12-5.3,40.4,3.8,40.7-13.3c0.1-5.2-0.6-61.5,0-67.3
		C345.5,236.2,234.7,215.2,234.9,234.8z"/>
	<path id="frt_8" class="st0" d="M315.2,235.2c7.7-1.3,14,3.7,18.3,7.7s11.7,4,15.3,0s12-9.3,24.3-7.3s16.3-1,26.3-6
		c13.2-6.6,19.5-9.1,36.7-14.5c-4.2-0.3-8.4-0.4-12.5-0.6c-17.5-1-39-4.6-42.5-13.3c-4.1-10-3.2-27.4-0.2-41.3
		c-1.7,3.8-6.6,8.8-10.5,12.2c-7.2,6.4-15.6,10.2-27.3,10.2c-11.4,0-18.5-3.1-26-9c-4.5-3.5-10.4-7.9-13.8-13.2
		c0.3,2.2,2.8,18.8,1.8,32.2c-0.9,13.4-10.8,16.6-31.6,20.6c-8.1,1.5-21.4,3-29.4,3.7c20.7,3.5,43.3,10.5,47.3,13.5
		S307.6,236.5,315.2,235.2z"/>
	<path id="frt_9_2_" class="st0" d="M339.9,364.6c0.6,5.8-0.2,62.1-0.1,67.3c0.3,17.1,29.5,8.1,41.8,13.4
		c42.5,18.2,47.8-10.1,50.2-14.1c0.7-8.7,1.5-15.3,2-16.8c0.3-1,0.8-2.7,1.3-5c2.2-8.5,5.4-23.9,5.9-28.8c3.9-4.4,7.9-13.2,9.2-21.2
		C450.5,339.9,336.5,360.6,339.9,364.6z"/>
	<path id="frt_9_1_" class="st0" d="M234.6,358.8c1.2,8,5.1,16.8,8.9,21.2c0.5,4.9,3.6,20.3,5.7,28.8c0.5,2.3,1,4,1.3,5
		c0.5,1.5,1.2,8.1,1.9,16.8c2.3,4,7.4,32.3,48.8,14.2c12-5.3,40.4,3.8,40.7-13.3c0.1-5.2-0.6-61.5,0-67.3
		C345.2,360.2,234.4,339.2,234.6,358.8z"/>
	<path class="st0" d="M337.7,566.7c0,0.1,0,0.2,0,0.3c80.1,1.1,102.9-31.1,106.8-38.7c-5.5-13.7-13.8-34.2-14.8-42.3
		c-0.9-7.3,1-37.4,3-57c-2.5,4-8.2,32.7-51.1,13.7c-12.4-5.6-22.6-13.2-42.8-11.8L337.7,566.7z"/>
	<path id="frt_10_2_" class="st0" d="M341.9,430.5L341.9,430.5c0,0.2,0.5,136.2-0.8,136.2c-76.8,0-98.3-32.1-101.9-39.6
		c5.5-13.4,13.7-33.5,14.8-41.5c1-7.2-0.5-36.9-2.1-56.2c2.3,4,7.4,32.3,48.8,14.2C312.7,438.3,324.8,430.5,341.9,430.5v116.3
		c0,1.9,0,3.8,0,5.7c0,3.1,0,6.2,0,9.2c0,0.2,0,0.4,0,0.7c0,0.8,0,2.9,0,3.2c0,0.7-1,0.4-0.8,1.1c0-0.3,0.1-0.3,0,0l0,0"/>
	<path id="frt_10_3_" class="st0" d="M338.9,307.2C347.7,307.1,332.9,307.3,338.9,307.2c36.6-0.1,88.5-32.4,105.2,15.9
		c3.6,12.1,9.3,15.3,7.4,34.2c-1.3,7.9-5.3,16.6-9.2,21.1c-23.9,29.3-55,11.6-69.9-0.7c-8.3-6.9-18.6-13.1-29.7-14.4
		c-1.9-0.2-3,0.2-3.3-1.6c-0.1-0.4,0-0.9,0-1.3c0-1.3,0-2.7,0-4c0-9.8-0.1-19.8-0.1-29.6C339.3,313.9,338.9,310.3,338.9,307.2"/>
	<path id="frt_10_1_" class="st0" d="M342,307c0,3.1-0.3,6.7-0.3,19.8c0,9.9,0,19.9,0,29.8c0,1.3,0,2.7,0,4c0,0.4,0.1,0.9,0,1.3
		c-0.3,1.8-1.4,1.4-3.2,1.6c-10.6,1.3-20.5,7.6-28.4,14.6c-14.2,12.5-44,30.4-67,1c-3.8-4.5-7.6-13.2-8.9-21.2
		c-1.9-19.1,3.6-22.3,7-34.5C257,274.7,306.9,307,342,307C347.8,307,333.5,307,342,307"/>
	<path id="frt_10" class="st1" d="M341.8,245.9c0,3.1,0,6.2,0,9.3c0,10.7,0,21.4,0,32.1c0,13.1,0,26.2,0,39.3c0,9.9,0,19.9,0,29.8
		c0,1.3,0,2.7,0,4c0,0.4,0.1,0.9,0,1.3c-0.3,1.8-1.4,1.4-3.2,1.6c-10.6,1.3-20.5,7.6-28.4,14.6c-14.2,12.5-44,30.4-67,1
		c-3.8-4.5-7.6-13.2-8.9-21.2c-0.1-19.6,3.6-22.3,7-34.5c15.8-48.7,65.7-16.4,100.8-16.4s84.8-31,101.2,14c3.5,9.2,8.5,18.4,6,38.4
		c-0.4,4.4-5,15.4-8.3,19.4c-17.3,23.9-49.3,15.8-71.3-2.7c-6.1-5.1-12.8-10-20.7-12c-1.7-0.4-3.5-0.7-5.3-0.8
		c-1.1-0.1-1.3-0.2-1.6,0.6c-0.2,0.7,0,1.9,0,2.6c0,7.7,0,15.5,0,23.2c0,9.4,0,18.8,0,28.2c0,2.4,0,4.7,0,7.1c0,1.1,0,2.3,0,3.4
		c0,1.3-0.4,2,0.8,2.4c1.8,0.6,4.3,0.2,6.2,0.5c2,0.3,3.9,0.6,5.9,1.1c7.1,1.7,13.8,4.7,20.3,7.9c2.6,1.3,5.2,2.6,7.8,3.8
		c40,18,47-6.8,50-16.5c-1.9,22.5-4.2,57.6-2.5,61.9c2.5,6.2,8,19.5,9.2,23.2c0.9,2.8,3.2,9.4,5.4,14.7c-4.1,8.3-27.2,39.6-104,39.6
		s-98.3-32.1-101.9-39.6c5.5-13.4,13.7-33.5,14.8-41.5c1-7.2-0.5-36.9-2.1-56.2c2.3,4,7.4,32.3,48.8,14.2
		c12-5.3,24.1-13.1,41.2-13.1v116.3c0,1.9,0,3.8,0,5.7c0,3.3,0,6.6,0,9.9c0,0.8,0,1.6,0,2.4c0,0.3,0,0.5,0,0.8
		c0,0.7-0.5,1.5-0.3,2.2c0-0.3,0.1-0.5,0.1-0.8c0,0.3,0.1,0.7,0,1"/>
	<path id="frt_12_2_" class="st0" d="M339.8,639.6c9.1-0.2,17.7,2.6,32.9,5.4c19.2-25.3,64.5-73.6,85.2-79.3
		c-4.5-15.9-8.6-26.3-9.3-28.1c-0.9-2.3-2.4-6-4.2-10.3c-3.6,7.5-28.4,39.5-104.6,40c0,0,0.7,1.6,0,0c0,6.9,0.6,71.6-0.1,72.9
		c0.1-0.6,0,0,0,0"/>
	<path id="frt_12_1_" class="st0" d="M341.7,640C341.7,640,341.6,639.5,341.7,640c-0.7-1.3-0.2-66-0.2-72.9c-0.6,1.6,0,0,0,0
		c-74.5-0.4-98.8-32.4-102.3-39.9c-1.7,4.3-3.2,8-4.1,10.3c-0.7,1.8-4.7,12.2-9,28.1c20.2,5.7,64.5,53.9,83.3,79.2
		c14.9-2.9,23.2-5.7,32.1-5.4"/>
	<path id="frt_13" class="st0" d="M312,644.9c5.7,7.5,9.6,13,10.4,14.8c15.3,17.2,28.7,12.5,40.8-0.8c0.8-1.7,4.1-7.2,9.1-14.6
		C353.9,637.6,327.2,637.9,312,644.9z"/>
	<path id="frt_14" class="st0" d="M243.5,279.1c0.4-24.9,15.2-46.1,48.1-49.3c-4-3-26.7-10-47.3-13.5c-8,0.7-36.8-0.8-45.5,44.5
		c-1.3,6.9-6.6,29.2-8.4,49.6C198.8,297.4,235.3,295.2,243.5,279.1z"/>
	<path id="frt_15" class="st0" d="M442.2,275.9c5.1,21,49.6,18.9,52.1,37c0-5.5-5-59.8-19-79.2c-10.7-15-25-17.7-39-18.6
		c-17.2,5.4-23.5,7.9-36.7,14.5C434,234.8,441.5,255.7,442.2,275.9z"/>
	<path id="frt_20" class="st0" d="M184.9,426.2c-10.1-4.5-11.5-4.8-21.3-15.8c-6.3,14.9-25,65.4-26.9,84.9
		c-4.4,44.5-15,74.2-20,87.5c1.8,4.4,7.2,6.7,12.4,8.9c5.5,2.4,14.8,4.1,20,3.2c2-4.5,4.3-9.3,6.5-13.4
		c8.5-15.2,22.1-48.8,29.1-64.5c6.1-13.6,26.1-84.1,28.8-95.3C200.8,427.4,195.4,430.8,184.9,426.2z"/>
	<path id="frt_16" class="st0" d="M241.4,323.3c2.7-9.6,4.7-20.2,2.8-33.1c-0.6-3.7-0.8-7.4-0.7-11c-8.2,16.1-44.7,18.3-53.2,31.4
		c-0.3,3-0.5,6-0.6,8.9c-0.7,20.9-21.5,74.7-26.5,91.7c2,21.5,40,20.8,49.9,11.9c0.8-2.1,4-13.3,4.6-14.6
		c2.3-5.2,15.7-39.7,16.6-50.6C234.2,338.2,237.9,335.5,241.4,323.3z"/>
	<path id="frt_21" class="st0" d="M555.9,591.8c5.1-2.2,10.5-4.5,12.3-8.8c-0.2-0.5-0.4-0.9-0.5-1.4c-6.5-17-11.5-47.2-15-73.2
		c-2.5-18.3-27.1-87.4-33.3-102.4c-6.6-14.9-16.7,2.8-28.4,7.9c-12.8,5.7-27.6-24.1-22.9-3.3c2.7,7,12.8,69,38.2,124.3
		c7.5,14.1,23.8,47.3,29.8,60C541.3,595.9,550.5,594.2,555.9,591.8z"/>
	<path id="frt_17" class="st0" d="M517.4,401.4c-0.2-0.8-0.4-1.6-0.6-2.4c-2.2-8.3-5.5-19.7-10.5-34.4c-3.7-11.1-6.3-20.3-8.2-27.7
		c-1.2-4.8-2-8.8-2.6-12.2c-1-5.8-1.3-9.6-1.3-11.8c-2.5-18.1-47-16-52.1-37c0.4,10.7-1.2,21.2-1.6,29c-0.4,6.4,1,11.2,2.8,16
		c3.5,9.2,8.5,18.4,6,38.4c0.3,1.9,1.8,4.1,2.7,6.9s7.3,22.7,10.3,30.8c1.4,3.7,3.6,8.7,5.8,13.7
		C473.1,423.2,524.6,432.9,517.4,401.4z"/>
	<path id="frt_18" class="st1" d="M96,381.8c-0.4,1.3-0.7,2.4-0.9,3.4c-3.2,13.5-5.8,23.5-9.5,29.8c-1.3,2.2-4.4,8.4-8,16.7
		c8.2-10,21.6-12.3,31.8-7.8c10.5,4.6,18.2,17.6,19.5,33.8c0.4-1.7,0.7-3.2,1-4.4c1.7-9.5,7.5-29,9-37.7c1.1-6.5,3.3-15.7,5.8-22.1
		C134.7,402.3,98,403.3,96,381.8z"/>
	<path id="frt_19" class="st1" d="M504.6,444c11.7-5.2,25.5-5.1,32.1,9.9c-1.4-3.3-2.7-6.2-3.9-8.8c-1.1-2.4-2.2-4.5-3.1-6.2
		c-6.2-11.8-8-20-9-23.8c-0.5-1.8-1.4-6.3-3.4-13.7c7.3,31.5-44.3,21.8-49.1,9.4c2.6,6.1,5.1,12.2,5.9,16.3
		c0.9,4.9,2.8,15.8,4.5,21.3c0.8,2.8,2.1,9.8,3.5,17c1.4,7,2.8,14.2,4.2,17.7C481.6,462.3,491.8,449.7,504.6,444z"/>
	<path id="frt_22" class="st0" d="M135.3,583.6c-5.2-2.2-13.2-6.9-15-11.2c-0.7,1.8-5.2,14.1-5.9,15.8c-2.7,7.8-5.6,12.2-8.2,14.7
		c6.8-0.8,13.8,1.3,19.6,4.9c6.2,3.9,11.6,4.6,13.3,9.8c1-3.5,3.6-9.5,7-16.8c0.8-1.8,6.6-13.9,7.5-15.9
		C148.6,585.8,140.9,586,135.3,583.6z"/>
	<path id="frt_23" class="st0" d="M558.8,607.8c7.8-4.9,17.8-7,26.6-3c-9.1-4.7-15.1-17.9-21.1-33.6c-1.8,4.3-5.6,9.3-10.7,11.5
		c-5.5,2.4-17.5,2.3-22.7,1.4c1.2,2.6,7.3,15.1,7.5,15.6c1.2,3.2,5.6,12.8,5.8,15.5c0.1,1.2,0.5,4.7,1.1,9
		C543.7,612.5,550.6,613,558.8,607.8z"/>
	<path id="frt_24" class="st0" d="M126.1,607.8c-5.8-3.6-12.8-5.7-19.6-4.9c-2.2,2.2-4.1,3-5.5,3.4c-2.9,1-20.6,11.6-26.4,15.2
		S66,631,60.4,633.7s-8.5,6.9-10,8.6s-6.6,7.5-6.6,9.9s4.4,3.8,8,2.9s11.8-8.6,15.8-12.4s9.5-4.9,12.2-4.9s2.6,3.1,1.9,4.5
		s-2.9,8.2-4,13.6s-1,11.9-1.9,14s-5,19.4-5.6,23.6s-2.6,15.5,0,19s6,1.2,7.1-1.4s3.6-14.1,4.1-16.9s6.8-21.1,7.4-22.8
		s3.1,2.6,2.2,5.8s-2.4,11.8-4.8,18.5s-2.6,14.1-3.4,17.5s-1.8,8.1-1.5,11.5s3.1,5.9,5.5,4.6s4.9-9.5,5.5-12.5s4-14.4,5.6-18.4
		s3-20.5,4-23s1.9,1.1,1.2,2.8s-3.4,18-3.8,21.6s-3.5,14.9-2.6,19.1s5.1,3.5,6.8,1.8s2.5-7.1,3-9.8s4.1-13.4,5.4-17.5
		s3.4-16.2,4.1-20.2s2-1.6,1.1,1.8s-0.9,11.9-1.8,14.2s-1,8.1-1.8,9.6s-2.8,5.9-1,9s5,1.5,5.9,0.1s3.8-10.6,5-13.4s2.6-11,3.8-15.9
		c1.1-4.9,3.2-11,4.4-17.5s1.3-14,2.5-18.3s4.5-18.7,4.7-23c0-0.6,0.2-1.4,0.5-2.4C137.7,612.4,132.3,611.8,126.1,607.8z"/>
	<path id="frt_25" class="st0" d="M629.6,635c-3.3-5.2-13.7-10-17-13.5s-17.8-11.8-27.2-16.7c-8.8-4-18.8-1.9-26.6,3
		c-8.3,5.2-15.1,4.7-13.7,16.5c0.8,5.3,2,11.9,3.3,17.2c2.4,9.8,2.1,16.2,3.5,22.4s4.9,14.5,5.8,21.2s3.4,7.2,5.5,15.2
		s6.9,8.4,8.1,6.1s0.4-7.5-0.4-8.5s-1.5-3.1-1.9-5.2s-1.6-8.4-2.1-11.5s-3.1-13.1-2.2-14.5s3.5,4,3.8,5.9s3,14.9,5,21.2
		s4,18.5,7.1,22.9s7.1,1.1,7.1-2.9s-3-17.1-3.2-20s-3.9-20-4.4-21.6s2.5-1.1,2.8,0.2s1.8,10.6,3,14.4s5,18.1,5.5,20.8
		s2,14.1,6.1,16.2s5.9-2.1,6.2-5.9s-5.5-30-6.4-34.5s-4.4-16.9-3-18.1s4.9,11.8,5.5,15.8s4.4,22.9,5.9,26.6s5.8,4.8,7.5,1.5
		s-1.5-24.4-1.9-31.4s-4.4-14.2-4.5-21.2s-5.2-20.5-4.8-22.7c0.5-2.6,9.2,0.3,12.2,2.7c3,2.3,8.5,8.5,11.5,10s8.8,3.8,10.2,0
		C637.1,642.9,632.9,640.2,629.6,635z"/>
	<path id="frt_26" class="st0" d="M226,565.7c-8.9,31.5-19.8,84.9-10.4,137.2c1.9,10.7,29.7,157,32.4,171.8c0.4,2.4,1.2,5.8,2,10
		c54.8-4.2,72.9,49.1,80.7,10.1c-0.3-28.3-1.7-73.1-2.7-91.6c-0.5-9-1.7-28.9,3.6-60.6c2.4-14.4,13.4-54.9-9.2-82.8
		c-0.8-1.8-4.7-7.3-10.4-14.8C292.6,619.6,246.9,571.4,226,565.7z"/>
	<path id="frt_27" class="st0" d="M372.3,644.2c-5,7.5-8.2,12.9-9.1,14.6c-22,24.2-15.5,60.2-10.5,83.8s4,49.2,3.8,59.5
		c-0.2,7.9-2.7,56.3-3,88.5c7.5,47.2,22.3-11.8,80.6-5.8c0.6-3.9,1.3-7.7,1.9-11.3c1.7-9.7,18-92.7,21-108.7s14.6-62.2,14.6-105.2
		c0-32.7-7.1-68.6-13.6-94C428.5,572.1,388.9,619.4,372.3,644.2z"/>
	<path id="frt_28" class="st0" d="M250,884.6c3.1,15.3,8,40.6,8.2,61.1c9.9,48.1,49,36.4,64.3,13.9c0.2-1.7,0.6-3.2,1-4.5
		c3.2-9.2,7-21.2,7.2-44c0-4.3,0-9.9-0.1-16.4C322.9,933.8,304.8,880.5,250,884.6z"/>
	<path id="frt_29" class="st0" d="M353.5,890.6c-0.1,9.7,0,18,0.4,23.2c1.8,22.5,4.2,31.7,7.7,44.5c15.2,24,59.7,38.5,64.9-16
		c0-11.8,2.1-30.8,4.1-39.2c1.3-5.2,2.4-11.8,3.5-18.4C375.7,878.9,361,937.9,353.5,890.6z"/>
	<path id="frt_30" class="st0" d="M258.2,945.7c0.1,8.4-0.7,15.9-2.7,21.7c-9.5,27-3.2,94.8,0,112s21.2,99.8,24.1,121.5
		c0.3,2.2,0.4,4.6,0.5,7c7-6.9,20.7-9.9,28.9-8.1c5,1.1,8.3,3.6,11.1,7.5c-2.4-9.7-1.7-19.7-1-34.9c0.8-16.5,6.8-83.5,9.8-105.2
		s0.8-46.2-2.5-62c-2.8-13.7-5.3-34.2-3.7-45.5C307.2,982.1,268.1,993.7,258.2,945.7z"/>
	<path id="frt_31" class="st0" d="M361.6,958.4c3.5,12.8-5.2,55.3-7,75.2c-1.8,19.8,5,54.5,5.2,66.3s3.2,42.5,4.8,56.8
		c1.7,14.3,2.3,41.2-0.7,53.5c3.3-5.5,5.9-9.1,12.1-10.4c8.8-1.9,21.8,0.7,28.3,8.6c0.5-9.5,5.2-38.2,14.8-79.2
		s12.8-69.8,14.5-100.5s-0.5-49.8-2.2-55s-4.8-19.5-4.8-31.2C421.2,996.9,376.7,982.4,361.6,958.4z"/>
	<path id="frt_32" class="st0" d="M308.9,1199.8c-8.2-1.8-21.8,1.2-28.9,8.1c0.2,11-1.6,22.9,0.2,29c1.6,5.6,2.3,5.9,1.3,9.8
		c7.5-4.4,35.3-5.7,42.3,2.9c-0.6-3.5-1.6-7-2.3-9.5c-1.2-4.5,0.2-8.8,1.8-11.2s0.8-8.5-2.5-19c-0.3-0.9-0.5-1.8-0.7-2.6
		C317.2,1203.4,313.9,1200.9,308.9,1199.8z"/>
	<path id="frt_33" class="st0" d="M376,1199.8c-6.2,1.3-8.8,4.9-12.1,10.4c-3,12.3-3.2,15.2-1.2,22.3c2,7.2,0,8.5-1.8,18
		c4.7-11.7,38.2-9.3,42-3.5c-1.7-4.3,0.5-5.5,1.8-12.5s-1-16.7-0.5-26.2C397.8,1200.4,384.8,1197.8,376,1199.8z"/>
	<path id="frt_34" class="st0" d="M281.6,1246.7c-0.3,1.3-0.9,3.1-1.6,5.7c-3,10-9.3,16.8-12.5,22s-0.5,7.8,2.8,9.7
		c3.3,1.8,3.3-0.5,4.8,0.7s12.3,0.5,13.5,0.2s1.5-0.7,5.2,0.8s8.8-2.3,10.7-0.7s10,1.7,12.7,1.4s5.3-5.2,5.8-6.7s0.3-3,1-5
		s1.2-6.2-0.2-9c-1.3-2.8-1.5-3.3,0-8.3c0.7-2.2,0.5-5,0.1-7.7C316.8,1241,289.1,1242.3,281.6,1246.7z"/>
	<path id="frt_35" class="st0" d="M360.9,1250.5c-1.8,9.5,2.7,9.8,0.3,14.2c-2.3,4.3-1.3,10.5-0.2,11.5s-1.3,2.5,3,7.2
		s13.8,2.7,15.3,2.2s3-1,4,0.2s6.5,0.6,7.7,0s3.3-1.2,4-0.3s5.2-0.4,7.5,0s5.8-1.2,8.2-0.8c2.3,0.3,7.2-2,7-6.5s-2.8-6.2-4.8-9.2
		s-8.3-17.5-10-21.8C399.1,1241.3,365.6,1238.9,360.9,1250.5z"/>
	<path id="frt_1_1_" class="st0" d="M342.7,18.1c-27.6-0.9-57.4,13.8-54.4,72.7c18.8,0,106.2-0.5,106.2-1.1
		C398.3,37.6,374.9,19.1,342.7,18.1z"/>
</g>
</svg>
