<?xml version="1.0" encoding="utf-8"?>
<!-- Generator: Adobe Illustrator 24.3.0, SVG Export Plug-In . SVG Version: 6.00 Build 0)  -->
<svg version="1.1" id="Layer_1" xmlns="http://www.w3.org/2000/svg" xmlns:xlink="http://www.w3.org/1999/xlink" x="0px" y="0px"
	 viewBox="0 0 800 1360" style="enable-background:new 0 0 800 1360;" xml:space="preserve">
<style type="text/css">
	.st0{fill:#CCCCCC;stroke:#0E4E9C;}
	.st1{fill:#CCCCCC;stroke:#0E4C9E;}
</style>
<g>
	<path id="frt_1" class="st0" d="M415.6,53c-12-28.8-34.4-45.7-53.4-45.7c-30.8,0-50.2,31.5-53.2,44.5c-1.9,8.3-2.8,23.5-2.5,28.2
		s1,12.3,0.7,16.2c2,7.7,6.7,23,6.7,33c0.7,5.2,1.2,12.5,3.3,18.8c3,4,22.5,23.3,44.2,23.3s36.5-8.7,45.7-23
		c2.6-5.6,5-15.2,4.8-18.6c-0.7-5.1,4.7-28,5.7-32.7C418.2,89.7,417.3,85,415.6,53z"/>
	<path id="frt_4" class="st0" d="M299,91.3c-4,4-1.8,17-0.8,20.7c3.7,13.9,3.1,12.5,7.2,15.8c1.4,1.1,5.2,4.8,8.5-1.7
		c0-10-4.6-25.3-6.7-33C306.2,91.3,303,87.3,299,91.3z"/>
	<path id="frt_5" class="st0" d="M411.8,129.7c3.8,6.4,8.9,3.2,10-1.8s7.6-7.9,6.8-23.6s-8-11.7-11-7.3
		C416.5,101.7,411.1,124.6,411.8,129.7L411.8,129.7z"/>
	<path id="frt_8" class="st0" d="M306.9,232.5c15.7-0.8,41.2-2.2,45.3,3.7s15.8,6,19.7,0s38-6.2,50.8-4.3c5,0.7,9.8,0.8,14.4,0.4
		c11-1.1,20.4-5.1,25.3-10c-8.9,0.1-18.5-5.2-31-10.7c-16.1-7.1-24.6-15.9-25.2-18.6s0.1-34.5,0.9-44.5c-9.2,14.3-24,23-45.7,23
		S320.2,152,317.2,148c2.2,6.3,1.5,29.8,0.8,45.3c-8.5,15.2-38,25.7-46,29.2c2,1.7,8.7,4.9,18.9,7.8
		C296,231.8,301.6,232.8,306.9,232.5L306.9,232.5z"/>
	<path id="frt_12" class="st0" d="M336.4,657.4c7.6,9.5,13.9,18.7,17.8,26.9c1-2.2,2.8-2.8,6.8-3.2s5.8,0.8,6.9,1.6
		c3.8-7.7,10.2-16.5,18.1-25.7C372.4,652.3,344.7,653.6,336.4,657.4L336.4,657.4z"/>
	<path id="frt_26" class="st0" d="M386,657c-7.9,9.2-14.3,18-18.1,25.7c1.2,0.8,3.1,5.1,4.3,8.1s1,20.8-0.2,31.5s1.5,59.8,3.8,71
		s8.4,55.3,10.1,67c1.7,11.7,5.2,31.5,7.2,39.8c36.2,25.8,52.4-20,89.2-33.2c3.3-11.9,5.9-48.2,5.6-61.5c0.9-10.9-0.7-70.6-1.6-80.9
		c-0.7-16.5-8.6-84-9.4-93.4c-1.1-12.5-4.3-40-5.3-53.7C460.9,586,414.1,624,386,657L386,657z"/>
	<path id="frt_27" class="st0" d="M240.3,867.3c1.2,2.6,2.4,4.9,3.4,7.1c3.5,25.8,4.8,42.1,6.5,61c0.1,3.7,0.3,7.7,0.3,11.9
		c10.6,44.4,50.9,21.2,68.8,3.9c0.3-1.3,0.9-2.7,1.4-3.5c0.9-1.6,2.1-10.6,3.4-16.6c1.3-6,2-18.5,4-26.8c0.2-0.7,0.4-1.6,0.6-2.7
		C294,924,275.9,880.5,240.3,867.3L240.3,867.3z"/>
	<path id="frt_28" class="st0" d="M393,900.2c2,8.3,4.3,14.2,4.3,24s4,22.2,5.2,25c17.4,18.2,63.2,42.9,71.4-12.7
		c0-11.5,3.1-34.2,3.5-45.2c0.4-11-0.9-14.3,4.8-24.3C445.4,880.1,429.2,926,393,900.2L393,900.2z"/>
	<path id="frt_29" class="st0" d="M250.6,947.3c0.1,4.2,0.1,8.6-0.2,13.1c-1.4,20.2-4.8,41.9-4.1,53c1,16,4.5,62,7.5,83
		c3,21,6.9,83,7.1,87.5c0.1,1.1,0,2.3-0.1,3.5c7-11.5,36.4-9.9,44.7-6.1c-1.1-3.9-2.3-10.5-2.4-15c-0.2-5.3,7.5-47.2,8.3-58.3
		s3.7-29.5,4.3-33.3s7.2-47.1,7.6-53.8c0.3-7.3,0.6-45.1-0.1-50.7s-2.2-13.1-3.5-15.1c-0.6-1-0.6-2.3-0.2-3.6
		C301.5,968.5,261.1,991.7,250.6,947.3L250.6,947.3z"/>
	<path id="frt_31" class="st0" d="M260.7,1187.3c-0.4,3.8-1.4,8.1-1.8,11.1c-0.5,4,2.1,8.6,1.4,15.9c0,0.3-0.1,0.7-0.1,1
		c12.7-4.4,40.1,8.7,48.9,21.1c1.2-7.8,1.1-15.2-0.5-19.1c-1.7-4.2-2.2-7.2-0.8-12.5c1.4-5.3-0.7-18.7-1.8-21.8
		c-0.2-0.5-0.4-1.1-0.6-1.8C297.1,1177.4,267.6,1175.8,260.7,1187.3L260.7,1187.3z"/>
	<path id="frt_32" class="st0" d="M417.2,1181.8c-2.2,6.2-3.2,21-2.7,22.7s0.8,9.3-1,13.5c-1.8,4.2-1.7,13.3-0.7,21.5
		c6-13.6,36.9-29.9,49.9-23.7c-2-5.5-2.2-5.8-1-9.2s2.2-12,1.5-16.2C459.9,1174.8,423.9,1177.3,417.2,1181.8L417.2,1181.8z"/>
	<path id="frt_33" class="st0" d="M260.2,1215.3c-1.1,7-6.7,15.4-10.9,23.7c-4.4,8.8-13,19.4-21,28.2c-2.3,2.5-4.1,5.8-5.5,9.2
		c-3.6,8.5-4.8,18.1-4.6,20.3c0.2,3.1,3.1,5.9,6.1,5.5c0,1.1,1,2.9,4.2,2.5c0.2,2,0,6.2,8.2,5c4,4.9,7.9,4.6,10.8,1.8
		c5.3,6.3,10.4,6.5,15.8,5.8c4.4-0.6,11.1-7.8,12.2-10.6s2.2-3.9,5.9-6.8c2-1.6,3.8-4.1,5.2-8.8c0.7-2.4,1.2-5.5,1.7-8.2
		c0.3-1.8,0.5-3.5,0.6-4.5c0.7-5.8,0.7-10.8,4.5-21.3c8.7-3.7,14-10.3,15.5-18.8c0.1-0.6,0.2-1.3,0.3-1.9
		C300.3,1224,272.8,1210.9,260.2,1215.3L260.2,1215.3z"/>
	<path id="frt_34" class="st0" d="M501,1276.5c-1.2-4.2-9.7-14.8-16.3-21.8c-6.6-7-7.8-11.3-12.5-18.7s-7.3-14.7-9.3-20.2
		c-13-6.2-43.9,10.1-49.9,23.7c1,8.2,12,15,15,16.5s3,4.2,3.8,7c0.8,2.8,2.8,10.7,3.8,21s6.2,15.7,8.7,17.7c2.5,2,2.8,3,3.7,4.7
		c0.9,1.7,3.4,6.1,11.2,9.8s15-1.2,16.7-4.8c4.5,4.5,11.1,0.4,12.2-2.1c4.9,1.4,7.8-3.2,7.9-5.2c1.6,0.3,3.6-1.1,4.2-2.6
		c0.8,0.3,2.5,0.7,5-3.3S502.1,1280.7,501,1276.5L501,1276.5z"/>
	<path id="frt_9_2_" class="st0" d="M363,445.4C363,448.5,361.6,445.1,363,445.4c17.7,3,6.2,2.9,29.1,9
		c27.5,7.4,54.9-13.2,62.3-20.9c3.1-6.7,7.1-27.6,9.3-33.3c2.2-5.7,5.1-22.4,5.5-22.3c-0.2-13.6,6.9-51.1,6-86.7
		c-0.1-2.5-0.4-4.9-0.7-7.4c-5.5-31.9-37.6-52.6-44.8-56.1c-6,0.1-14.5-0.8-19.2-1.1c-14.1-0.8-34.2-1.2-37.9,4.6s-9.6-2.7-9.4,4.4
		c0.2,8.9-23,142.6-23.2,156.9C340.5,412,363,443.7,363,445.4z"/>
	<path id="frt_9_1_" class="st0" d="M362.8,370c-0.2-14.3-0.2-125.4,0-134.3c0.2-7.1-5.7,1.4-9.4-4.4c-3.7-5.8-29.6-6.7-43.6-5.9
		c-4.8,0.3-6-1.2-10.7-2.7c-7.2,3.5-42.2,29-47.6,60.9c-0.4,2.4-0.6,4.9-0.7,7.4c-0.9,35.7,6.3,72.4,6.1,86
		c0.4-0.1,5.6,25.6,7.8,31.3c2.2,5.7,4.3,18.3,7.5,25.1c7.4,7.8,33.1,23.6,61.9,18.1c23.2-4.5,9.4-2.2,27.1-5.2
		c1.3-0.2,1.6,2.3,1.6-0.9C362.7,443.8,362.1,389.5,362.8,370z"/>
	<path id="frt_10_1_" class="st0" d="M367.9,450.8c0-1.5-5.2-6.8-5.2-5.9c0,0.1-0.1-14.3-0.1-14.3c-2.8,1-16.4,9.3-47.1,11.6
		c-31.4-0.5-36.7-2.8-44.1-10.5c3.2,6.8,3.1,21.5,4.7,27.3s-1.9,15.4-4,36c-2.3,20.5-4.8,30.6-3.7,35.1c0.7,3-4.4,6.3-5.3,10.1
		c10.5,11.5,36.2,34.5,99.3,34.5c0.7,0,5.4-0.9,5.4-15.8c0-11.6-1.5-31.8-1.6-51.4C365.7,474.6,367.9,454.6,367.9,450.8z"/>
	<path id="frt_10_2_" class="st0" d="M362,508.4c-0.2,19.6,0.2,40,0.2,51.6c0,14.9-1.5,14.4,0,14.9c60.3,21.7,87.8-22,98.4-33.5
		c-0.8-3.8-4.7-8.4-4-11.4c1.1-4.5,0.1-16.1-2.1-36.7c-2.3-20.5-6.4-28.3-4.8-34.1c1.6-5.8,2.5-24.8,5.7-31.6
		c-7.5,7.7-23,12.5-50.7,11.4c-16.5-2.7-41.9-8.5-41.9-8.6c0-0.9-0.3,15-0.3,16.5C362.4,450.7,362.5,475.4,362,508.4z"/>
	<path id="frt_11_2_" class="st0" d="M360.5,575c-0.1,32.5,0.2,25.3,0.3,40.1c0.1,13.6,0.7,21.3,0.3,39.4c7.1,0.8,16-0.5,24.3,3.2
		c27.1-33.1,78.3-70.6,86.3-80.2c-1.7-11.8-4.3-21.9-7-26.1c-2-3-2.5-8.2-3-10c-11.5,11.6-33.4,33.4-103.3,33.9L360.5,575z"/>
	<path id="frt_11_1_" class="st0" d="M361.7,574.7c-69-1-86.9-23.5-98.5-35c-0.4,1.9-1.5,4.1-3.4,7.2c-2.7,4.2-5,15.5-6.7,27.3
		c8.1,9.5,56.6,49.7,84,82.6c8.3-3.8,17.2-2.5,24.2-3.4c-0.5-18.1,0-25.8,0-39.4c0-14.8,0.3-6.7,0-39.2L361.7,574.7z"/>
	<path id="frt_29_1_" class="st0" d="M470.8,944.6c-9.8,44.6-50.1,21.3-68.4,4.6c0.4,1.3-1.1,8.7-1.7,9.7c-1.3,2-1.4,13-2,18.6
		s1.3,37.7,1.7,44.9c0.4,6.7,4.2,49.4,4.9,53.2s3.9,22.1,4.8,33.2c1,11.1,9.3,52.9,9.2,58.2c0,4.5-1.1,11.1-2.2,15
		c8.2-3.9,37.6-6,44.8,5.4c-0.1-1.2-0.2-2.4-0.2-3.5c0.1-4.5,3-66.6,5.7-87.6s5.4-67.1,6.2-83.1c0.5-11.1-0.2-35.9-1.9-56.1
		C471.4,952.7,470.7,948.8,470.8,944.6L470.8,944.6z"/>
	<path id="frt_26_1_" class="st0" d="M336.4,656.7c-28.4-32.9-72.7-73.2-83.4-81.9c-0.9,13.7-7.2,45.4-8.2,57.9
		c-0.8,9.4-8.3,77-9,93.5c-0.8,10.4-2.2,70.1-1.2,80.9c-0.2,13.3,2.6,49.6,5.9,61.5c36.8,13,53.2,58.7,89.4,32.8
		c2-8.3,5.4-28.1,7-39.8c1.6-11.7,7.5-55.8,9.8-67c2.2-11.2,4.7-60.3,3.5-71c-1.3-10.7-1.5-28.5-0.4-31.5c1.2-3,3.1-7.3,4.3-8.1
		c-3.8-7.7-7.7-15.3-15.6-24.5L336.4,656.7z"/>
	<path id="frt_14" class="st0" d="M467.7,278.3c13.5,30,46,30.2,58.6,48.4c-0.8-3.4-4.1-24.8-3.4-31.3c-2-22.3-9.7-37-22.7-53.4
		s-45.2-25-55.7-24.9c-5,4.9-14.4,9-25.3,10C430,230.1,465.7,257.6,467.7,278.3L467.7,278.3z"/>
	<path id="frt_20" class="st0" d="M614,564.4c-2.9-7.6-5.9-16.1-8.1-21.6c-34-115.8-44.7-136.6-51.5-149
		c-24.3-16.4-63.2,18.8-61.7,31.8c7,18,20.5,69.5,47.2,107.6c4.2,6,27.1,44.1,30.1,49.3C576.6,592.6,615.9,574,614,564.4z"/>
	<path id="frt_16" class="st0" d="M530.8,429c14.3-6,25.9-14.6,23.2-33.9c-1.6-11.2-14.7-38.9-18.8-44.9c-2.3-3.3-7.7-18.3-8.9-23.4
		c-12.6-18.2-45.1-18.4-58.6-48.4c1.2,12,2.2,85.6,1.5,99c0.1,0.1,20.8,42.7,23.5,48.2C501.2,438.6,517.2,434.7,530.8,429z"/>
	<path id="frt_22" class="st0" d="M630,594.6c-8.5-4-5.8-8.2-9.5-15c-1.7-3.1-8.4-20.5-10.8-26.9c1.8,9.6-38,32.2-44.5,22
		c1.5,2.7,10.1,18.2,13.4,25.4c3.2,6.8,6,13.1,6.5,14C600,602.2,621.5,594,630,594.6z"/>
	<path id="frt_24" class="st0" d="M683.5,624.6c-2.8-3.8-17.5-11.5-21.8-14.5c-2.1-1.5-7.9-4.4-14.3-7.4s-13.2-6.1-17.5-8.1
		c-8.4-0.6-30,7.6-44.9,19.5c1,1.8-0.9,7.1,0.1,16.2s4.1,23.2,6.4,32.1s7,18.4,8.5,22.9s9.4,29.4,12.6,32c2.8,2.2,7.5,0.8,8.2-2.8
		s-1.6-10.9-2.5-14.1s-5.6-19.2-6.5-21.8s-2-5.1-0.2-5.1s2.1,2.8,3.2,5.6s5.9,19.5,6.9,24.1s4.5,17,6.2,21.8s5,10,9,9.8
		s4.9-4.8,5.1-8.4s-5.9-23.5-6.4-27.6s-5.4-19.2-6.1-21.2s-1.4-5,0.6-5.1s2.9,5.6,3.8,8.6s9.8,31.9,10.2,35.5s2.6,14.5,6,17.8
		c2.7,2.6,5.6,3.9,8.6,0.9s2.2-10,0.9-15.2s-4.6-21.1-5.5-25s-6.4-20.9-7.2-24s-2.1-5.4-1.1-5.8s2.2,1.1,3.5,5.2s6.6,20.5,8.4,25.5
		s1.5,11.6,4.1,17.4s7,7.6,10.6,7.1s4.3-7.4,4.4-10.1s-4.8-20.5-6.2-27.4s-5.2-16.6-6.5-23s-7.4-23.4-8.6-26s-0.6-4.8,2.5-3.9
		s9.2,2.6,13,7.6s10.9,6.8,13.4,7s8.5,0.4,9.2-6.4S686.2,628.3,683.5,624.6z"/>
	<path id="frt_13" class="st0" d="M257.7,283.7c6.1-31.9,44.1-54.8,52.1-58.3c-10.2-2.9-18.8-7.9-20.9-9.5c-8,3.5-15.5,2-26.8,4.2
		c-11.3,2.2-33.3,16-45.3,40.5s-17.7,54.2-17.4,63c0,1.2,0,2.3-0.1,3.2C212.3,311.4,243.1,307.7,257.7,283.7L257.7,283.7z"/>
	<path id="frt_19" class="st0" d="M135.6,487.7c-3.8,12.3-10.2,40.3-18.1,63.6c-1.7,5.1-3.6,11.8-5.3,16.3
		c1.7,9,32.5,21.7,42.6,16.8c1.5-2.7,2.8-5,3.7-6.6c4.7-7.5,12.4-19.5,23.7-36.7c10.7-16.2,24.1-37.6,30.6-53.6
		c0.3-0.6,14.4-44,17-57c-7-15-18.1-53-56-35.6C173.9,395,151.7,434.3,135.6,487.7z"/>
	<path id="frt_15" class="st0" d="M256.9,291c0.1-2.5,0.4-4.9,0.8-7.4c-14.6,24-45.4,27.8-58.3,43.2c-0.4,6-6.2,19.3-8.8,25.4
		c-11.3,25.5-12.5,29-14.7,35.5c-0.5,1.7-3.1,10.3-3.4,11.7c-1.4,17.7,10.2,23.9,23.9,29.6c11.4,4.8,24.5,8.3,33.4,1.5
		c0.7-1.5,1.6-3.4,2.9-5.7c3.5-6.8,23.4-48,24-48.1C256.9,363.1,255.9,326.7,256.9,291z"/>
	<path id="frt_21" class="st0" d="M116.2,555.1c-4,12.7-9.2,25.1-9.9,26.6c-0.9,1.9-6.1,11.6-7.6,12.9c9.1,0.4,29,8.7,43,19.4
		c-0.5-9.4,13.4-29.5,18-38.2C149.7,580.7,117.9,564.1,116.2,555.1z"/>
	<path id="frt_23" class="st0" d="M141,617.5c0.1-1,0.3-2.2,0.7-3.5c-14-10.8-34-19-43-19.4c-1.9,1.6-5.3,3-12.8,5.1
		c-1.9,0.5-3.8,1.3-5.9,2.2c-12.7,5.8-27.9,18.4-31.9,21c-4.6,3-7.8,8.4-11.9,10.5s-4.1,8.6,0,10.5s9.6,0.1,13-1.5s9-8.5,15.5-10.5
		c3.8-1.2,7.6-1.5,7.6,0.1s-8.5,22.4-9.1,25.5s-3.9,13.9-5.9,21.1S52,700,50.7,708s0.9,11.8,5.1,12.6s7.9-7.6,8.6-10.6
		c0.7-3,2.9-12.8,4-15.5s6.6-18.8,8-22s2.4-8.6,4.4-7.8s-0.4,5.9-1.8,9.8c-1.4,3.9-7.1,24.7-7.9,28.6s-5,19.8-5.2,22.5
		c-0.2,2.7-1.9,8.8,2.8,10.5s7.8-1.9,9.5-5.6c1.7-3.7,5.4-17.6,7.4-26.1s5.8-19.5,7.1-24s2.1-8,3.9-7.9s1.5,2.5,0.8,4.8
		s-6.1,20.6-7.1,25.6S86,719,84.8,723.2s-1.8,9.2,2.5,10.8s6.9-1.5,8.8-4.8s7.9-21.5,9.4-27.1s4.8-18.5,6.1-22.4s2.5-5.6,3.6-5.5
		s0.2,2.6-1.1,7s-5.4,18.5-7.1,25s-2.2,9.6,0,12s7.1-0.5,8.2-2.5s3-11,5.7-16.3c1.7-3.4,3.7-11.2,6.5-19.4c1.7-4.8,4.3-9.7,5.6-13.8
		c0.4-1.1,0.7-2.2,1-3.2c2.7-9.4,3.6-16.6,6-25.3C142.7,628,140.2,626,141,617.5z"/>
	<path id="frt_1_1_" class="st1" d="M363.4,7.3c-28.8-0.9-59.9,14.4-56.8,75.9c19.6,0,110.9-0.5,110.9-1.1
		C421.4,27.7,397,8.4,363.4,7.3z"/>
</g>
<path id="frt_9_3_" class="st0" d="M363.5,316.9c-0.2-14.3,0-72,0.1-80.9c0.2-7.1-5.6,0.3-9.4-4.4c-4.4-5.3-19.9-7.2-33.9-6.4
	c-4.8,0.3-5.3-0.4-10.5,0.3c-7.2,3.5-47.8,24.2-53.3,56.1c-0.4,2.4-1.9,8-1.9,10.5c0.6,10.5,2.1,10.4,1.9,24
	c0.4-0.1,51.2,1.4,60,1.4C327,317.5,353.6,317.9,363.5,316.9z"/>
<path id="frt_9_4_" class="st0" d="M409.8,317.6c8.9,0,58.8-1.5,59.2-1.4c-0.2-13.6,2.2-13.5,2.8-24c-0.1-2.5-1.5-8.1-1.9-10.5
	c-5.5-31.9-46.1-52.6-53.3-56.1c-5.2-0.6-5.8,0-10.5-0.3c-14-0.8-29.5,1.1-33.9,6.4c-3.8,4.7-9.6-2.7-9.4,4.4
	c0.2,8.9,0.3,66.6,0.1,80.9C372.8,318,399.4,317.7,409.8,317.6z"/>
</svg>
