<?xml version="1.0" encoding="utf-8"?>
<!-- Generator: Adobe Illustrator 24.3.0, SVG Export Plug-In . SVG Version: 6.00 Build 0)  -->
<svg version="1.1" id="Layer_1" xmlns="http://www.w3.org/2000/svg" xmlns:xlink="http://www.w3.org/1999/xlink" x="0px" y="0px"
	 viewBox="0 0 800 1360" style="enable-background:new 0 0 800 1360;" xml:space="preserve">
<style type="text/css">
	.st0{fill:#CCCCCC;stroke:#0E4E9C;}
</style>
<g>
	<path id="bck_1" class="st0" d="M413.2,144.3c1.4-8.3,2.3-14.4,4.2-28.6c0.4-2.8,4.7-1.7,6.7-4.4c0.9-1.3,7.3-14.1,8-17
		c0.9-3.3,2.1-16.1,1.6-16.9c-5.2-7.9-12.2,6.1-11.9,3.4c0.9-8,1.6-14.9,1.9-19.7c1.3-21.6-29-55-61.3-55
		c-27.3,0-76.4,23.8-57.3,74.3c0.4,0.9-5.9-5.9-8.4-4.8c-3.5,1.5-3.5,4.6-3.4,7.3c0.2,3.1,1.2,10.5,3,14c1.9,3.5,3.8,13.1,5.8,16
		c2.5,3.6,7.3,3.9,7.4,4.8c0.2,2.4,1.4,8.7,4.6,26.3C324.4,164.8,403,164.6,413.2,144.3z"/>
	<path id="bck_2" class="st0" d="M460.2,215.9c-28-9.4-49-27.2-50-29.3s0.2-30.5,1.5-34.3c0.2-0.7,0.8-3.6,1.5-7.9
		c-10.2,20.3-88.8,20.5-99-0.4c1.2,6.9,2.3,12,3,12.8c1.6,1.9,2.9,28.2,0.5,31.3c-7.8,10-31.5,20.7-49.2,27.4
		C290.2,209.4,442.3,212.1,460.2,215.9L460.2,215.9z"/>
	<path id="bck_8" class="st0" d="M260.7,319.7c-1.8-10.4-1-25.2,0-31c-5.9,6.6,29.9-80.1,22.7-78c-68.5,19.9-75.1,38.4-79.8,44.7
		c-6.1,8.4-12.6,15-15.6,76.2c-6.8,10.6-9.9,25.7-11.7,35.9s-12.8,27.8-15.5,35.5c-4,34.3,10.7,40.5,26.1,46.2
		c16.5,6,26.1,3.4,35.2-12.3c1.1-2.2,3.4-7,4.4-8.9c3.5-7,18.3-39.3,19.2-42.1s2.1,0,3.2,0c3.5-36.6,13.5-44.3,11.8-54.7V319.7z"/>
	<path id="bck_10" class="st0" d="M186.8,449.3c-15.4-5.7-30.1-11.8-26.1-46.2c-2.8,7.7-1.8,15.2-6.5,23.4s-0.8,6.5-9.8,19.9
		c-4.2,6.3-9,20-13.2,35.3c-1.3,4.6-2.5,9.3-3.6,14c3.4-5.9,6.6-22.5,50.4-10.9c10.7,2.8,31.9,11.1,26.9,27.4
		c2.7-7.8,4.7-15.1,6.3-21.5c2.5-10.4,3.7-17.9,4-19.8c0.5-4.3,0.8-7.3,1.5-9.3s2.2-9.8,2.3-13.1c0.1-2.4,1.9-9.2,4.8-15
		C214.8,449.1,203.3,455.3,186.8,449.3L186.8,449.3z"/>
	<path id="bck_11" class="st0" d="M550.2,484.7c39.1-10.3,46.7,1.8,50.3,8.7c-0.2-1.4-0.4-2.6-0.6-3.8
		c-2.8-17.7-17.8-46.8-19.5-49.5s-8.2-16.4-10.2-26.6c-0.3-1.5-0.6-2.9-1-4.2c1.5,28.9-13.2,34.7-27.7,40
		c-15.3,5.6-27.9,1.4-37-11.6c0.8,1.7,1.4,2.9,1.7,3.5c2.2,4.2,2.2,4.7,2.2,7.7s2.8,14.2,4.1,19.4c1.2,4.9,0.1,15.8,7.6,38.7
		C522.5,494.8,541.2,487.1,550.2,484.7z"/>
	<path id="bck_16" class="st0" d="M97.4,611.3c-3.2,1.1-16.4,13.9-20,15.4s-5.8,6.5-10.2,9c-4.4,2.5-8.3,6-9,8.8s-5.5,4.3-5.5,7.3
		s2,5.3,6.9,6s12.6-8,14.1-9.4s2.5,0.5,1.8,2.3s-5.7,14.9-6.8,19.7c-1.2,4.8-3.8,16.9-4.5,20.9c-0.7,4-3,20.9-3.3,23.9
		s-3.3,14.9,1.2,18.2s7.8-2.3,9.8-7.6s1.5-11.8,2.7-14.4c1.2-2.6,4.3-18.9,6.3-22.4s2.8,1.2,1.7,4.1s-3.8,16.1-3.8,18.2
		s-1.8,13.9-2.5,17.9s-1.3,13.9,0,18.1c1.3,4.2,7.2,1.7,9-0.5s3.7-11.1,4.5-16.4s1-14.1,2.5-19.9s3.6-16.2,5.5-19.1s3.8,0.3,3.3,2.5
		s-2.3,9.4-4,16.2s-1.5,14.4-3,21.2s-3.2,12.3,0,15.7s6.5,0.8,8.5-1.7s4.3-13.3,5.7-21.7s4.7-21.1,5.8-25c1.2-4,3.5-7.8,5.3-7.5
		s-0.2,6-1,9.1s-5,20.6-5.2,26.2s2.5,7.8,5.7,6.5s4.3-6,5-8.8s2.7-8.6,3.2-11.9s4.2-16.1,6.2-20.2c2-4.1,2.8-9.3,6.7-27.2
		c3.8-17.9,4.3-32.4,3.3-36.4C142.6,626.3,101.1,610.6,97.4,611.3z"/>
	<path id="bck_12" class="st0" d="M178.1,484.7c-43.8-11.5-47,5-50.4,10.9c-3.1,13-5.6,25.8-6.7,35c-9.2,50.5-20.2,67.3-23.6,80.7
		c-0.9,6,9.5,13.9,20.9,18.7c11,4.6,23.4,1.2,26-2.6c10.1-17,18.2-45.1,48.7-87.6c4.9-9,8.9-18.6,12.1-27.8
		C209.9,495.8,188.8,487.5,178.1,484.7L178.1,484.7z"/>
	<path id="bck_17" class="st0" d="M667.4,642.6c-1.4-3.8-8-7.6-10.3-8.6s-7.9-8-12.7-10c-4.1-1.7-11.9-10.4-15.6-11.5
		c-9.3,2.8-38.9,10.8-47.1,15.4c-0.2,1.6,1.4,5,2.2,10.8c-1.7,4,0.9,19.5,1.9,22.8s4.2,22.2,5.8,25.9s3,8.1,3.7,10.4
		s7.7,31.8,10.2,34.2s5.7,1.8,7-0.5s0.5-7.5,0-10.8s-1.7-9.8-2-12.4s-2.3-10.4-3.3-14.1c-1-3.6,1.3-3.6,3-1.5
		c1.7,2.2,3.3,8.6,4.2,11.8s3.5,16.1,4.3,20.6s2.8,17.6,5.8,20.7s5.7,3.3,8.2,1s1.2-7.3,0.8-10.1s-2.5-19.1-2.8-22.9
		s-3.8-14.3-4.7-20.4s2.7-1.8,3-0.5s4.2,14.8,4.7,18.2s3,15.6,3.5,22.5s3.7,12.9,4.8,14.4s6,2.2,7.5,0s1.2-5.6,1-9.3
		s-1.5-22-1.5-25.5s-4.5-19.7-5-23.4s1.3-1.8,2-0.2c0.7,1.7,5,19.1,5.8,22.7s1.2,7.3,1.8,11.9s3.8,9,6.3,10.3s5.5-1.2,6.5-3.8
		s-1.5-15.1-1.8-23.2s-1.5-11.3-2.2-13.9c-0.7-2.7-3-18.1-3.8-22.4c-0.8-4.3-6.7-18.9-7.7-21.7s4.2,0.5,5.7,2.8s7.5,5.5,10.5,5.3
		s5.7-1.7,6-5.3S669.4,647.9,667.4,642.6L667.4,642.6z"/>
	<path id="bck_8_1_" class="st0" d="M484.2,320c-1.7,10.4-8.1,29.4-4.5,66c1.1,0,3.8-4.3,4.7-1.5c0.9,2.8,8,32.4,15.9,43.3
		c1,1.9,3,7.7,4.1,9.8c9.2,15.7,21,17.4,37.5,11.3c15.4-5.8,31.5-5.9,27.4-40.2c-7.7-19.9-15.3-31.3-17.1-41.5s-5-25.3-11.8-35.9
		c-3.3-61.1-9.7-67.8-15.9-76.1c-4.7-6.3-11.4-24.8-79.9-44.5c-7.2-2.1,35.5,82.7,29.5,76C475.2,292.7,486,309.6,484.2,320
		L484.2,320z"/>
	<path id="bck_19" class="st0" d="M370.6,708.7c0.8,5.8,5.1,20.9,3.8,39.3s3.2,72.9,6.5,86.3s7,37.8,8.8,56
		c1.1,11.3,3.4,23,5.6,32.2c8.4,9.2,24.1,12.2,39.7,11.3c15.3-0.9,32.9-5,46.8-24.8c0.9-5.9,1.7-9.6,2-10.8c0.8-3,4.1-27,4.1-38
		c0-13.4,3.2-46.8,4.2-61.7s2.9-42.6,2.6-56.4c-0.2-7.7-1.8-33.6-3.2-39.7s-4.3-21.6-4.8-25.5c-0.2-1.7-1.3-7.5-2.5-13.9
		c0,23.4-13.1,13.9-21.6,27.5c-13.9,2-35.2,13.2-81.6,18.6L370.6,708.7z"/>
	<path id="bck_19_1_" class="st0" d="M357.8,709.8c-29,8.8-56.1-3.7-87-15c-8.5-13.6-27.1-8.9-27-32.3c-1.2,6.4-2.3,12.2-2.5,13.9
		c-0.5,3.9-3.4,19.4-4.8,25.5s-3,32-3.2,39.7c-0.4,13.8,1.5,41.5,2.5,56.4s4.1,48.3,4.1,61.7c0,11,3.3,35,4.1,38
		c0.3,1.2,1.1,4.9,2,10.8c13.9,19.8,31.5,24,46.8,24.9c15.6,0.9,32.9-2.3,41.4-13.9c2.2-9.2,2.8-18.3,3.9-29.6
		c1.8-18.2,5.6-42.6,8.9-56s7.9-67.9,6.6-86.3c0.4-18.6,1.4-20.7,2.3-26.5L357.8,709.8z"/>
	<path id="bck_20" class="st0" d="M293.4,933.8c-16.2-1-34-5.5-48.3-28.6c2.5,12.9,3.2,32.1,4.2,53.2c0.7,13.8-0.1,29.5-1.2,42.2
		c2.6-20.8,19.1-19,35.6-17.4c16.6,1.6,33.3,3.3,35.7,9.8c-1.2-5.5,0.7-11.1,3-15.9s3.2-17.7,4-28.7s5.8-24.2,7.5-30
		C326.9,930.8,311.1,934.8,293.4,933.8L293.4,933.8z"/>
	<path id="bck_21" class="st0" d="M434.9,933.8c-15.6,0.9-31.2-2.1-39.7-11.3c1.3,5.6,2.6,10.3,3.7,13.5c2.8,8.7,2.2,34.1,5.5,40.3
		c2.6,4.9,3.7,9.2,3.5,15.1c6-4.7,22.4-6.7,36.5-8.2c13.7-1.4,29.4,1.3,35.9,14c-1-13.8-1.8-29.7-1.6-46.5c0.1-18.7,1.7-32.8,3-41.7
		C467.8,928.8,450.2,932.8,434.9,933.8L434.9,933.8z"/>
	<path id="bck_22" class="st0" d="M283.9,983.2c-16.5-1.6-33.1-3.4-35.6,17.4c-0.6,6.7-1.2,12.6-1.8,17c-1.8,12.7-5,45.8-2.5,59.7
		s8.8,70.1,9,91.3c2.4,11.5,18.5,15.4,31.6,15.9c13.2,0.5,23.3-2.3,25.6-16.1c1.5-12.1,2.9-25,3.1-31.4c0.3-11.3,3.5-35.2,8-48.4
		s5.3-35.1,3.6-53.9s-4.2-36.1-5.3-41.6C317.2,986.5,300.5,984.9,283.9,983.2L283.9,983.2z"/>
	<path id="bck_23" class="st0" d="M444.4,983.2c-14.2,1.4-30.5,3.5-36.5,8.2c-0.1,1.6-0.2,3.2-0.5,5.1c-1.2,8.7-5.4,47.9-5.1,67.3
		c0.2,12.3,1.8,19.9,4.6,33c1,4.9,7.3,39.2,7.5,45.4c0.1,3.2,1.8,16.6,3.8,30.8c5.6,7.7,15.9,11.8,25.6,11.5
		c11.8-0.5,25.9-3.6,30.5-12.6c0.1-3.3,0.3-6.3,0.4-9c0.8-12.9,4.8-46.5,7.5-73.6s3-44.5,1-61.9c-0.9-8-2-18.3-2.9-30.1
		C473.8,984.5,458.1,981.9,444.4,983.2L444.4,983.2z"/>
	<path id="bck_24" class="st0" d="M284.5,1184.4c-13.1-0.5-29.2-4.3-31.6-15.9c0.2,21.1,4.1,51.2,4.2,57.8s-1.2,26.6-1,28.5
		c0.2,1.9,0.2,3.7-0.9,3.7c6.1,14.3,4.3,25.1,3.6,34.2c-0.4,5.1,0.2,9.5,1.3,14.1c10.5-13.4,48-20,48.2-7.5
		c-0.2-6.1-1.2-13.4-2.1-20.4c-1.5-12.8,1.8-27.2,2.2-31s-4.5-18.4-5.8-25.4s2.2-19.1,4.2-31.2c0.9-5.2,2.1-14,3.2-23.2
		C307.9,1182.1,297.7,1184.9,284.5,1184.4L284.5,1184.4z"/>
	<path id="bck_25" class="st0" d="M443.8,1184.4c-9.7,0.4-19.9-3.8-25.6-11.5c1.9,13.7,4.2,28,5.7,34.1c3,12.4,1,17.7-1.8,26.5
		s-2.3,14.3-1.3,21.9s0.7,17.4,0.5,24.4c-0.1,4.1-2.1,11.3-2.6,17.9c5.4-8.6,37.8-2.7,48.5,9c0.5-0.5,1-0.9,1.5-1.3
		c0.8-4,1.1-8.4,0.8-12.7c-1-13.1-2-21,3-33.6c-0.1-0.1-0.2-0.1-0.3-0.2c-2.2-1.5-1.7-12.6-1.7-21.6s1.2-24.1,2.2-31.8
		c0.8-6.1,1.1-21.3,1.6-33.7C469.7,1180.8,455.5,1184,443.8,1184.4L443.8,1184.4z"/>
	<path id="bck_26" class="st0" d="M260.2,1306.9c2.3,2.2,12.7,9.1,23.2,11.6s19.2-1.5,23-7.1c1.7-2.6,2.2-6.8,2.1-11.9
		C308.2,1286.9,270.7,1293.5,260.2,1306.9L260.2,1306.9z"/>
	<path id="bck_27" class="st0" d="M418.6,1297.8c-0.4,4.8,0,9.3,2.5,12.2c6.6,7.8,13.3,10.3,26.7,7.1c9.4-2.2,15.7-7.1,19.4-10.4
		C456.4,1295.1,424,1289.2,418.6,1297.8z"/>
	<path id="bck_3_1_" class="st0" d="M382.6,206c-16.8,0-76.4-2.6-98.2,3.4c-39.5,21.4-44.5,68.4-45.5,74.1s0.5,26.1,2.2,36.6
		s8.2,29.4,4.6,66c1.1,0,1.5,3.5,1.9,6.1s4.2,16.7,9.2,22.9S266,440,270,447.4c4.5,5.5,41.4,10.6,83.7,11.4
		c9.7,0.2,19.6-1.7,29.5-1.8c-0.8-5.3-0.8-158.8-0.8-175C382.6,246.9,382.6,246.9,382.6,206z"/>
	<path id="bck_3_2_" class="st0" d="M346.2,282.1c0.2,16.2,2.1,169.7,1.4,175c9.9-0.1,19.9,1.7,29.5,1.4
		c42.4-1.4,76.7-5.9,81.1-11.4c3.9-7.5,10.5-27.3,15.4-33.5c4.9-6.3,8.6-20.4,9-23c0.3-2.6,0.7-6.1,1.8-6.1
		c-4.1-36.6,2.2-55.6,3.8-66.1c1.6-10.5,2.9-30.9,1.8-36.6s-5.9-51-45.6-71.9c-21.8-5.7-82.2-4-99-3.8
		C345.7,247,345.7,247,346.2,282.1z"/>
	<path id="bck_4_2_" class="st0" d="M363.2,511.8c-0.2,20.1-0.2,20.1-0.3,29c-0.1,16.9-1.3,19.3-0.2,19.2
		c18.4-2.3,17.9-9.9,47.4-9.6c26,0.2,50.2,8,56.4,17.1c-3.9-6.7-1.7-11.8-0.2-15.7c1.4-4.1-0.7-25.1-1.6-30.9s-5-12.3-2.8-31
		s-3.4-45.3,0.7-52.8c-4.6,5.5-30,12.7-72.4,13.1c-9.6,0.1-16.5,1.6-26.4,1.5C364.1,461.5,363,496.2,363.2,511.8z"/>
	<path id="bck_4_1_" class="st0" d="M364.5,457.1c-9.9,0-15.1-6.4-24.7-6.6c-42.4-0.8-69.4-5.8-73.9-11.3c4,7.5-4.9,27.4-2.9,46.1
		s0.9,28.8-0.1,34.6s-3.3,26.8-1.9,30.9c1.4,3.9,3.6,9-0.4,15.7c6.3-9.1,30.6-16.6,56.6-16.6c29.5,0,28.9,7.6,47.3,10.1
		c1.1,0.1-0.1-2.3,0-19.2c0-8.9,0-8.9,0-29C365,496.2,364.2,466.9,364.5,457.1z"/>
	<path id="bck_5_2_" class="st0" d="M366.2,705.5c2.4,0,4.1,0.3,4.4,3.2c0.3,3.1,29.4,6.6,38.1,5.3c47.8-5.4,77.4-32,77.4-50.9
		c-1.5-8.5-4.5-20.1-4-32.3s-5.5-54.7-11.5-63.7c-0.2-0.3-0.4-0.6-0.6-0.9c-6.3-9.1-30.6-16.6-56.6-16.6c-29.5,0-46.9,10-49.6,10.4
		c-2.3,0.3-1.5,127.2-0.4,145.1C363.3,705,363.8,705.5,366.2,705.5z"/>
	<path id="bck_5_1_" class="st0" d="M366.3,704.9c1.1-17.9-0.4-144.7-2.6-145c-2.8-0.4-17.9-10.4-47.4-10.4
		c-26.1,0-50.4,7.4-56.6,16.6c-0.2,0.3-0.4,0.6-0.6,0.9c-6,9-12,51.5-11.5,63.7s-2.5,23.9-4,32.3c0,18.9,15.6,28.4,22.3,33.5
		c22.2,11.5,44.3,22.2,80,17.8c3.6-0.9,12.2-3,13.2-5.8s2-3.2,4.4-3.2S366.3,704.9,366.3,704.9z"/>
	<path id="bck_4_3_" class="st0" d="M325.2,550.1c17.4,0.5,27.8,8.6,38.5,9.8c5.3,0.6,35.1-6.9,38.6-9.9
		c1.5-4.1-9.4-339.8-17.5-344.3c-4.6,0-35,0-44.9-0.1C339.3,211.3,324.1,550.1,325.2,550.1z"/>
	<path id="bck_4_4_" class="st0" d="M325.2,550.1c17.4,0.5,27.8,8.6,38.5,9.8c5.3,0.6,35.1-6.9,38.6-9.9c1.5-4.1-1.5-88.1-2.4-100
		c-15.5,0-11.3,0.6-36.1,1.7c-8.5,0.5-25-1.6-34.9-1.7C328.3,455.7,324.1,550.1,325.2,550.1z"/>
	<path id="bck_12_1_" class="st0" d="M550.1,484.8c-10.7,2.6-33.6,9.7-29.1,26c3.1,9.2,8.6,19.8,13.4,28.9
		c29.9,42.9,37.5,71.1,47.4,88.3c2.5,3.8,14.9,7.4,25.9,3c11.5-4.6,22-12.4,21.2-18.4c-3.2-13.5-13.9-30.4-22.4-81
		c-1-9.2-2.3-25.2-5.2-38.2C597.9,487.3,594,473.9,550.1,484.8L550.1,484.8z"/>
</g>
</svg>
